<svg width="1000" height="244" viewBox="0 0 1000 244" xmlns="http://www.w3.org/2000/svg">
<path fill-rule="evenodd" clip-rule="evenodd" d="M262.11 3.72768C237.087 10.2055 223.996 17.6071 206.367 35.2331C181.065 60.5357 174.217 78.9243 174.199 121.6C174.18 167.157 182.56 188.823 209.629 213.162C235.95 236.825 261.732 245.47 300.653 243.673C337.686 241.965 360.212 232.646 383.425 209.433C406.234 186.623 415.175 159.466 413.635 117.659C412.59 89.288 410.783 81.2045 401.347 62.772C377.383 15.9537 315.786 -10.1701 262.11 3.72768ZM0 4.80181C0 6.09224 2.88504 9.25598 6.41528 11.8368C12.266 16.115 12.8306 25.7309 12.8306 120.918C12.8306 215.196 12.2074 225.996 6.41528 232.401C2.88871 236.297 0 240.627 0 242.02C0 243.413 35.8339 244.11 79.6338 243.567L159.268 242.577L162.145 226.08C166.266 202.446 164.011 196.232 156.47 210.438C153.01 216.956 145.114 224.911 138.922 228.111C126.586 234.49 69.164 239.59 53.6134 235.689L43.9905 233.273V125.457C43.9905 34.5109 44.852 16.7822 49.4893 12.1448C52.5136 9.12034 54.9881 5.70364 54.9881 4.54886C54.9881 3.39774 42.6158 2.45558 27.494 2.45558C12.3723 2.45558 0 3.51139 0 4.80181ZM428.907 4.61485C428.907 6.13256 431.792 10.5684 435.322 14.4653C441.107 20.8588 441.738 31.5525 441.738 123.433C441.738 218.474 441.268 225.827 434.754 233.027L427.771 240.744H456.401C483.906 240.744 484.793 240.48 478.965 234.039C473.605 228.119 472.898 214.632 472.898 118.561V9.78755L495.809 9.87553C544.177 10.0588 565.336 22.9557 570.172 55.198C574.068 81.1679 564.302 97.5218 538.883 107.592C514.065 117.424 511.825 124.368 530.404 133.848C549.342 143.512 553.671 149.073 573.694 189.421C597.281 236.946 601.203 240.748 626.586 240.73L647.027 240.719L636.018 234.003C628.551 229.449 619.745 216.816 608.656 194.74C589.355 156.32 571.147 136.612 549.173 130.358C527.101 124.074 525.162 121.094 541.189 118.088C590.667 108.806 618.788 66.1447 597.644 32.4506C583.427 9.79854 564.39 4.49753 492.143 3.08613C457.362 2.40792 428.907 3.09346 428.907 4.61485ZM658.372 10.1725C664.894 17.3798 665.356 24.7594 665.356 121.6C665.356 218.441 664.894 225.82 658.372 233.027L651.389 240.744H738.105H824.821V218.748C824.821 206.651 823.333 196.753 821.518 196.753C819.7 196.753 814.869 202.424 810.777 209.356C799.608 228.287 784.515 234.318 743.303 236.32C717.837 237.559 706.018 236.734 702.062 233.453C697.553 229.71 696.516 218.345 696.516 172.678V116.508L716.927 125.853C758.341 144.813 780.831 139.446 780.831 110.602C780.831 95.4359 778.782 94.7283 769.401 106.654C760.207 118.345 747.134 120.595 720.344 115.108L698.349 110.602L697.33 57.8779L696.307 5.15008L733.988 6.85843C758.935 7.99121 775.581 10.6087 783.258 14.6046C794.351 20.3822 807.907 34.5622 811.243 43.8812C814.913 54.1276 816.965 42.829 814.96 23.414L812.797 2.45558H732.093H651.389L658.372 10.1725ZM835.819 4.80181C835.819 6.09224 838.704 9.25598 842.234 11.8368C848.085 16.115 848.65 25.7309 848.65 120.918C848.65 215.196 848.026 225.996 842.234 232.401C838.704 236.297 835.819 240.627 835.819 242.02C835.819 243.413 871.653 244.11 915.453 243.567L995.087 242.577L997.964 226.08C1002.08 202.446 999.83 196.232 992.289 210.438C988.829 216.956 980.933 224.911 974.741 228.111C962.405 234.49 904.983 239.59 889.432 235.689L879.81 233.273V125.457C879.81 34.5109 880.671 16.7822 885.308 12.1448C888.333 9.12034 890.807 5.70364 890.807 4.54886C890.807 3.39774 878.435 2.45558 863.313 2.45558C848.191 2.45558 835.819 3.51139 835.819 4.80181ZM247.186 16.7272C228.461 25.2323 211.041 46.0661 205.194 66.9512C202.539 76.4351 201.352 95.4762 202.298 113.469C204.926 163.524 230.308 206.526 269.442 227.221C291.151 238.699 326.45 238.149 348.258 225.989C388.835 203.366 399.749 137.008 372.636 77.7805C347.539 22.9594 292.471 -3.84257 247.186 16.7272Z"/>
</svg>